<svg width="204" height="40" viewBox="0 0 204 40" fill="none" xmlns="http://www.w3.org/2000/svg">
<path d="M4.7055 0.354505C6.17556 0.354505 7.38311 0.636796 8.32815 1.20138C9.28631 1.75283 9.98197 2.4881 10.4151 3.40719C10.8614 4.31315 11.0845 5.30445 11.0845 6.38109C11.0845 7.72033 10.7695 8.90202 10.1395 9.92614C9.50945 10.9371 8.66941 11.7249 7.61937 12.2895C6.58246 12.841 5.46022 13.1167 4.25267 13.1167C3.7014 13.1167 3.07794 13.0576 2.38228 12.9394C1.69976 12.8344 1.16817 12.6965 0.787532 12.5258C0.682528 12.4733 0.610337 12.4208 0.570961 12.3683C0.54471 12.3026 0.525021 12.1976 0.511896 12.0532L0.255948 9.49286C0.255948 9.45347 0.288762 9.43378 0.354389 9.43378C0.433143 9.42065 0.479082 9.43378 0.492208 9.47317C0.859722 10.4579 1.45037 11.226 2.26415 11.7774C3.07794 12.3289 3.96391 12.6046 4.92207 12.6046C6.24775 12.6046 7.24529 12.1057 7.9147 11.1078C8.59722 10.0968 8.93849 8.72477 8.93849 6.99163V6.75529H6.43807C5.70304 6.75529 5.11896 6.92598 4.68582 7.26736C4.25267 7.60873 4.0361 8.0814 4.0361 8.68538C4.0361 8.71164 3.99672 8.72477 3.91797 8.72477C3.85234 8.72477 3.81953 8.71164 3.81953 8.68538L3.83922 6.67651L3.81953 5.67208C3.79328 5.19941 3.78015 4.82521 3.78015 4.54948C3.78015 4.52322 3.81953 4.51009 3.89828 4.51009C3.97704 4.51009 4.01641 4.52322 4.01641 4.54948C4.02954 5.06155 4.25267 5.47514 4.68582 5.79025C5.13208 6.09224 5.7293 6.24323 6.47745 6.24323H8.9188C8.85317 5.1272 8.63004 4.15559 8.2494 3.32841C7.88188 2.4881 7.38968 1.84474 6.77277 1.39833C6.169 0.938783 5.47991 0.709011 4.7055 0.709011C3.85234 0.709011 3.06481 0.984737 2.34291 1.53619C1.63413 2.07451 1.03035 2.89513 0.531584 3.99803C0.518459 4.03742 0.479082 4.05055 0.413454 4.03742C0.347827 4.02429 0.315013 4.0046 0.315013 3.97834L0.610337 1.45741C0.636588 1.29985 0.662839 1.19481 0.68909 1.14229C0.715342 1.08978 0.787532 1.03726 0.905662 0.984737C2.12634 0.564582 3.39295 0.354505 4.7055 0.354505Z" fill="black"/>
<path d="M28.1267 12.644C28.153 12.644 28.1661 12.6834 28.1661 12.7622C28.1661 12.841 28.153 12.8804 28.1267 12.8804H25.2719C25.0882 12.8804 24.9241 12.8278 24.7797 12.7228C24.6485 12.6178 24.4188 12.3486 24.0906 11.9153C23.7625 11.482 23.2047 10.7008 22.4171 9.57164L22.0627 9.05958C21.5377 8.31118 21.1505 7.79255 20.9011 7.50369C20.6649 7.20171 20.4155 6.99163 20.153 6.87346C19.8905 6.74216 19.5426 6.67651 19.1095 6.67651H19.0307V11.2851C19.0307 11.679 19.0701 11.9744 19.1489 12.1713C19.2276 12.3552 19.372 12.4799 19.582 12.5455C19.792 12.6112 20.1333 12.644 20.6058 12.644C20.6452 12.644 20.6649 12.6834 20.6649 12.7622C20.6649 12.841 20.6452 12.8804 20.6058 12.8804C20.1595 12.8804 19.8051 12.8738 19.5426 12.8607L17.9873 12.841L16.5697 12.8607C16.3203 12.8738 15.9791 12.8804 15.5459 12.8804C15.5065 12.8804 15.4868 12.841 15.4868 12.7622C15.4868 12.6834 15.5065 12.644 15.5459 12.644C16.0184 12.644 16.3597 12.6112 16.5697 12.5455C16.7928 12.4799 16.9438 12.3552 17.0225 12.1713C17.1013 11.9744 17.1407 11.679 17.1407 11.2851V2.16642C17.1407 1.77253 17.1013 1.48367 17.0225 1.29985C16.9438 1.11603 16.7928 0.991301 16.5697 0.925652C16.3597 0.846873 16.025 0.807484 15.5656 0.807484C15.5262 0.807484 15.5065 0.768095 15.5065 0.689316C15.5065 0.610537 15.5262 0.571148 15.5656 0.571148L16.5894 0.590842C17.1669 0.617102 17.6329 0.630231 17.9873 0.630231C18.4073 0.630231 18.9323 0.617102 19.5623 0.590842L20.6058 0.571148C20.6452 0.571148 20.6649 0.610537 20.6649 0.689316C20.6649 0.768095 20.6452 0.807484 20.6058 0.807484C20.1464 0.807484 19.8051 0.846873 19.582 0.925652C19.372 1.00443 19.2276 1.14229 19.1489 1.33924C19.0701 1.52306 19.0307 1.81192 19.0307 2.20581V6.3417C19.3851 6.32857 19.8248 6.32201 20.3499 6.32201H20.4877L22.6534 3.32841C23.2047 2.56688 23.4803 1.96291 23.4803 1.51649C23.4803 1.04382 23.1915 0.807484 22.614 0.807484C22.5878 0.807484 22.5746 0.768095 22.5746 0.689316C22.5746 0.610537 22.5878 0.571148 22.614 0.571148L23.5 0.590842C24.0513 0.617102 24.55 0.630231 24.9963 0.630231C25.4819 0.630231 25.9873 0.617102 26.5123 0.590842L27.3195 0.571148C27.3589 0.571148 27.3786 0.610537 27.3786 0.689316C27.3786 0.768095 27.3589 0.807484 27.3195 0.807484C26.7026 0.807484 26.066 1.00443 25.4097 1.39833C24.7535 1.79222 24.1563 2.33054 23.6181 3.01329L20.9799 6.3417C21.4261 6.38109 21.8002 6.48613 22.1021 6.65682C22.404 6.82751 22.6993 7.0901 22.9881 7.44461C23.29 7.78598 23.7297 8.3637 24.3072 9.17774C24.9897 10.1231 25.4951 10.8058 25.8232 11.226C26.1645 11.6462 26.5189 11.9875 26.8864 12.2501C27.267 12.4996 27.6805 12.6309 28.1267 12.644Z" fill="black"/>
<path d="M38.5794 0.354505C39.17 0.354505 39.7804 0.407025 40.4104 0.512063C41.0535 0.617102 41.5589 0.76153 41.9264 0.945348C42.0445 0.984737 42.1167 1.03726 42.143 1.1029C42.1823 1.15542 42.2086 1.2539 42.2217 1.39833L42.458 3.95864C42.458 3.99803 42.4252 4.02429 42.3595 4.03742C42.2939 4.05055 42.2545 4.03086 42.2414 3.97834C41.8608 2.95421 41.2832 2.17299 40.5088 1.63466C39.7476 1.09634 38.8484 0.827179 37.8115 0.827179C36.4465 0.827179 35.3767 1.30642 34.6023 2.26489C33.8279 3.22337 33.4407 4.51009 33.4407 6.12506C33.4407 7.333 33.6507 8.44247 34.0708 9.45347C34.5039 10.4645 35.0945 11.2654 35.8427 11.8562C36.604 12.4471 37.4506 12.7425 38.3825 12.7425C40.1544 12.7425 41.4998 11.6396 42.4186 9.43378C42.4317 9.38126 42.4711 9.36156 42.5367 9.37469C42.6155 9.38782 42.6549 9.41408 42.6549 9.45347L42.3595 11.9744C42.3333 12.132 42.3005 12.237 42.2611 12.2895C42.2348 12.3289 42.1626 12.3749 42.0445 12.4274C40.9026 12.8869 39.6885 13.1167 38.4022 13.1167C36.8009 13.1167 35.4686 12.8016 34.4055 12.1713C33.3423 11.528 32.5548 10.7139 32.0429 9.7292C31.5441 8.74446 31.2947 7.72034 31.2947 6.65682C31.2947 5.42262 31.6294 4.32628 32.2988 3.3678C32.9813 2.40932 33.8804 1.66749 34.9961 1.14229C36.1118 0.617102 37.3062 0.354505 38.5794 0.354505Z" fill="black"/>
<path d="M60.5111 12.644C60.5504 12.644 60.5701 12.6834 60.5701 12.7622C60.5701 12.841 60.5504 12.8804 60.5111 12.8804C60.0779 12.8804 59.7367 12.8738 59.4873 12.8607L58.0697 12.841L56.5143 12.8607C56.265 12.8738 55.9171 12.8804 55.4709 12.8804C55.4315 12.8804 55.4118 12.841 55.4118 12.7622C55.4118 12.6834 55.4315 12.644 55.4709 12.644C55.9303 12.644 56.265 12.6112 56.475 12.5455C56.6981 12.4799 56.849 12.3552 56.9278 12.1713C57.0065 11.9744 57.0459 11.679 57.0459 11.2851V2.34367C57.0459 1.89726 57.0262 1.60184 56.9869 1.45741C56.9475 1.31298 56.8556 1.22107 56.7112 1.18168C56.58 1.14229 56.2978 1.1226 55.8646 1.1226H51.8285C51.3823 1.1226 51.0804 1.14229 50.9229 1.18168C50.7654 1.22107 50.6669 1.31955 50.6275 1.4771C50.5882 1.62153 50.5685 1.91039 50.5685 2.34367V11.2851C50.5685 11.679 50.6078 11.9744 50.6866 12.1713C50.7654 12.3552 50.9097 12.4799 51.1197 12.5455C51.3298 12.6112 51.671 12.644 52.1435 12.644C52.1829 12.644 52.2026 12.6834 52.2026 12.7622C52.2026 12.841 52.1829 12.8804 52.1435 12.8804C51.7104 12.8804 51.3626 12.8738 51.1001 12.8607L49.525 12.841L48.1271 12.8607C47.8777 12.8738 47.5299 12.8804 47.0836 12.8804C47.0574 12.8804 47.0443 12.841 47.0443 12.7622C47.0443 12.6834 47.0574 12.644 47.0836 12.644C47.5562 12.644 47.904 12.6112 48.1271 12.5455C48.3503 12.4799 48.5012 12.3552 48.58 12.1713C48.6587 11.9744 48.6981 11.679 48.6981 11.2851V2.40276C48.6981 1.81192 48.5931 1.39833 48.3831 1.16199C48.1731 0.925653 47.7465 0.807484 47.1033 0.807484C47.0771 0.807484 47.064 0.768095 47.064 0.689316C47.064 0.610537 47.0771 0.571148 47.1033 0.571148C47.5496 0.571148 47.9827 0.577713 48.4028 0.590842C50.1616 0.617102 51.986 0.630231 53.8761 0.630231C55.6218 0.630231 57.6169 0.610537 59.8614 0.571148H60.5111C60.5504 0.571148 60.5701 0.610537 60.5701 0.689316C60.5701 0.768095 60.5504 0.807484 60.5111 0.807484C59.8679 0.807484 59.4413 0.925653 59.2313 1.16199C59.0213 1.39833 58.9163 1.81192 58.9163 2.40276V11.2851C58.9163 11.679 58.9557 11.9744 59.0344 12.1713C59.1132 12.3552 59.2641 12.4799 59.4873 12.5455C59.7104 12.6112 60.0517 12.644 60.5111 12.644Z" fill="black"/>
<path d="M73.7622 9.80798C73.7622 9.78172 73.7885 9.76859 73.841 9.76859C73.8803 9.76859 73.9132 9.78172 73.9394 9.80798C73.9788 9.82111 73.9985 9.83424 73.9985 9.84737C73.8672 10.8452 73.8016 11.7578 73.8016 12.5849C73.8016 12.69 73.7819 12.7688 73.7425 12.8213C73.7031 12.8607 73.6244 12.8804 73.5063 12.8804H64.9615C64.9222 12.8804 64.9025 12.841 64.9025 12.7622C64.9025 12.6834 64.9222 12.644 64.9615 12.644C65.4078 12.644 65.7294 12.6112 65.9263 12.5455C66.1363 12.4799 66.2741 12.3552 66.3397 12.1713C66.4185 11.9744 66.4579 11.679 66.4579 11.2851V2.16642C66.4579 1.77253 66.4185 1.48367 66.3397 1.29985C66.2741 1.11603 66.1363 0.991301 65.9263 0.925652C65.7163 0.846873 65.3947 0.807484 64.9615 0.807484C64.9222 0.807484 64.9025 0.768095 64.9025 0.689316C64.9025 0.610537 64.9222 0.571148 64.9615 0.571148H73.1519C73.2831 0.571148 73.3488 0.630232 73.3488 0.748399L73.3881 3.30871C73.3881 3.33497 73.3488 3.35467 73.27 3.3678C73.2044 3.38093 73.165 3.3678 73.1519 3.32841C72.8369 1.83161 71.9246 1.08321 70.4152 1.08321H69.6277C69.1552 1.08321 68.8204 1.16855 68.6236 1.33924C68.4267 1.50993 68.3282 1.79879 68.3282 2.20581V6.22354H70.2183C71.6621 6.22354 72.384 5.73773 72.384 4.76612C72.384 4.72674 72.4168 4.70704 72.4825 4.70704C72.5612 4.70704 72.6006 4.72674 72.6006 4.76612L72.5809 6.47957L72.6006 7.40522C72.6269 7.82537 72.64 8.16675 72.64 8.42935C72.64 8.4556 72.6006 8.46873 72.5218 8.46873C72.4431 8.46873 72.4037 8.4556 72.4037 8.42935C72.4037 7.30018 71.6687 6.7356 70.1986 6.7356H68.3282V11.2063C68.3282 11.6396 68.407 11.9416 68.5645 12.1123C68.7351 12.2829 69.0305 12.3683 69.4505 12.3683H70.4152C72.174 12.3683 73.2897 11.5149 73.7622 9.80798Z" fill="black"/>
<path d="M81.9501 11.2063C81.9501 11.6265 81.996 11.935 82.0879 12.132C82.1929 12.3158 82.3832 12.4471 82.6589 12.5258C82.9476 12.6046 83.3939 12.644 83.9977 12.644C84.037 12.644 84.0567 12.6834 84.0567 12.7622C84.0567 12.841 84.037 12.8804 83.9977 12.8804C83.4595 12.8804 83.0395 12.8738 82.7376 12.8607L81.0247 12.841L79.6072 12.8607C79.3578 12.8738 79.0165 12.8804 78.5834 12.8804C78.544 12.8804 78.5243 12.841 78.5243 12.7622C78.5243 12.6834 78.544 12.644 78.5834 12.644C79.0296 12.644 79.3512 12.6112 79.5481 12.5455C79.745 12.4799 79.8762 12.3552 79.9419 12.1713C80.0206 11.9875 80.06 11.6921 80.06 11.2851V2.16642C80.06 1.77253 80.0206 1.48367 79.9419 1.29985C79.8762 1.11603 79.7384 0.991301 79.5284 0.925652C79.3315 0.846873 79.0165 0.807484 78.5834 0.807484C78.544 0.807484 78.5243 0.768095 78.5243 0.689316C78.5243 0.610537 78.544 0.571148 78.5834 0.571148L79.6072 0.590842C80.1847 0.617102 80.6507 0.630231 81.005 0.630231C81.3069 0.630231 81.6744 0.610537 82.1076 0.571148C82.2651 0.558018 82.4751 0.544888 82.7376 0.531758C83.0133 0.518628 83.3348 0.512063 83.7023 0.512063C85.0018 0.512063 86.0256 0.78779 86.7737 1.33924C87.535 1.89069 87.9156 2.73757 87.9156 3.87986C87.9156 4.70704 87.6991 5.40949 87.2659 5.9872C86.8459 6.56491 86.3012 6.99819 85.6318 7.28705C84.9755 7.57591 84.2996 7.72033 83.6039 7.72033C83.2364 7.72033 82.9279 7.68751 82.6786 7.62186C82.6392 7.62186 82.6195 7.58904 82.6195 7.52339C82.6195 7.484 82.6261 7.44461 82.6392 7.40522C82.6654 7.36583 82.6917 7.3527 82.7179 7.36583C82.9279 7.41835 83.1576 7.44461 83.407 7.44461C84.0895 7.44461 84.6671 7.16232 85.1396 6.59774C85.6121 6.03315 85.8484 5.22567 85.8484 4.17528C85.8484 3.13803 85.6055 2.33711 85.1199 1.77253C84.6343 1.19481 83.9649 0.905958 83.1117 0.905958C82.7967 0.905958 82.5539 0.938782 82.3832 1.00443C82.2257 1.07008 82.1142 1.19481 82.0485 1.37863C81.9829 1.54932 81.9501 1.82504 81.9501 2.20581V11.2063Z" fill="black"/>
<path d="M95.7871 0.984737C94.9865 0.984737 94.3236 1.2342 93.7986 1.73314C93.2867 2.21894 92.8929 2.96077 92.6173 3.95864C92.6173 3.9849 92.5779 3.99803 92.4992 3.99803C92.4335 3.99803 92.4007 3.97834 92.4007 3.93895C92.4532 3.42688 92.5123 2.77039 92.5779 1.96947C92.6435 1.15542 92.6764 0.544888 92.6764 0.137864C92.6764 0.0722146 92.7092 0.0393901 92.7748 0.0393901C92.8536 0.0393901 92.8929 0.0722146 92.8929 0.137864C92.8929 0.42672 93.2605 0.571148 93.9955 0.571148C95.1243 0.610537 96.4434 0.630231 97.9528 0.630231C98.7272 0.630231 99.5476 0.617102 100.414 0.590842L101.753 0.571148C102.251 0.571148 102.612 0.538323 102.836 0.472673C103.072 0.407024 103.223 0.275726 103.288 0.0787791C103.301 0.0262597 103.341 0 103.406 0C103.472 0 103.505 0.0262597 103.505 0.0787791C103.466 0.485804 103.426 1.10291 103.387 1.93008C103.347 2.75726 103.328 3.42688 103.328 3.93895C103.328 3.97834 103.288 3.99803 103.21 3.99803C103.144 3.99803 103.105 3.97834 103.091 3.93895C102.96 2.92795 102.652 2.18612 102.166 1.71344C101.68 1.22764 101.024 0.984737 100.197 0.984737C99.8298 0.984737 99.5541 1.01756 99.3704 1.08321C99.1998 1.14886 99.0816 1.26703 99.016 1.43772C98.9635 1.59527 98.9372 1.85131 98.9372 2.20581V11.2851C98.9372 11.6921 98.9766 11.9875 99.0554 12.1713C99.1341 12.3552 99.2916 12.4799 99.5279 12.5455C99.7641 12.6112 100.138 12.644 100.65 12.644C100.689 12.644 100.709 12.6834 100.709 12.7622C100.709 12.841 100.689 12.8804 100.65 12.8804C100.191 12.8804 99.8298 12.8738 99.5673 12.8607L97.9528 12.841L96.4171 12.8607C96.1415 12.8738 95.7609 12.8804 95.2752 12.8804C95.249 12.8804 95.2358 12.841 95.2358 12.7622C95.2358 12.6834 95.249 12.644 95.2752 12.644C95.7871 12.644 96.1612 12.6112 96.3974 12.5455C96.6468 12.4799 96.8109 12.3552 96.8897 12.1713C96.9815 11.9744 97.0275 11.679 97.0275 11.2851V2.16642C97.0275 1.82504 96.9947 1.57558 96.929 1.41802C96.8634 1.26046 96.7453 1.14886 96.5746 1.08321C96.404 1.01756 96.1415 0.984737 95.7871 0.984737Z" fill="black"/>
<path d="M113.46 5.92811C114.799 5.92811 115.829 6.19728 116.551 6.7356C117.273 7.26079 117.634 8.06828 117.634 9.15805C117.634 9.91958 117.45 10.5892 117.083 11.1669C116.729 11.7315 116.223 12.1713 115.567 12.4865C114.924 12.8016 114.182 12.9591 113.342 12.9591C113.014 12.9591 112.614 12.9394 112.141 12.9C111.039 12.8607 110.448 12.841 110.369 12.841L109.109 12.8607C108.847 12.8738 108.479 12.8804 108.007 12.8804C107.967 12.8804 107.948 12.841 107.948 12.7622C107.948 12.6834 107.967 12.644 108.007 12.644C108.466 12.6309 108.794 12.5981 108.991 12.5455C109.188 12.4799 109.326 12.3617 109.404 12.191C109.483 12.0072 109.523 11.7052 109.523 11.2851V2.16642C109.523 1.74627 109.483 1.45085 109.404 1.28016C109.339 1.09634 109.208 0.978172 109.011 0.925652C108.814 0.873134 108.486 0.833744 108.026 0.807484C108 0.807484 107.987 0.768095 107.987 0.689316C107.987 0.610537 108 0.571148 108.026 0.571148L108.991 0.590842C109.569 0.617102 110.054 0.630231 110.448 0.630231C110.855 0.630231 111.373 0.617102 112.003 0.590842L113.067 0.571148C113.106 0.571148 113.126 0.610537 113.126 0.689316C113.126 0.768095 113.106 0.807484 113.067 0.807484C112.568 0.833744 112.207 0.879699 111.984 0.945348C111.774 0.997866 111.623 1.11603 111.531 1.29985C111.452 1.48367 111.413 1.78566 111.413 2.20581V6.10537C112.095 5.9872 112.778 5.92811 113.46 5.92811ZM112.988 12.5062C113.946 12.5062 114.628 12.2698 115.035 11.7971C115.442 11.3113 115.646 10.5564 115.646 9.53225C115.646 8.44248 115.423 7.65469 114.976 7.16888C114.53 6.66995 113.821 6.42048 112.85 6.42048C112.496 6.42048 112.016 6.46644 111.413 6.55835V11.2851C111.413 11.7052 111.511 12.0138 111.708 12.2107C111.918 12.4077 112.345 12.5062 112.988 12.5062ZM122.005 11.2851C122.005 11.6921 122.038 11.9875 122.103 12.1713C122.169 12.3552 122.3 12.4799 122.497 12.5455C122.707 12.6112 123.035 12.644 123.482 12.644C123.521 12.644 123.541 12.6834 123.541 12.7622C123.541 12.841 123.521 12.8804 123.482 12.8804C123.062 12.8804 122.727 12.8738 122.478 12.8607L121.021 12.841L119.603 12.8607C119.354 12.8738 119.012 12.8804 118.579 12.8804C118.54 12.8804 118.52 12.841 118.52 12.7622C118.52 12.6834 118.54 12.644 118.579 12.644C119.026 12.644 119.347 12.6112 119.544 12.5455C119.754 12.4799 119.898 12.3552 119.977 12.1713C120.056 11.9744 120.095 11.679 120.095 11.2851V2.16642C120.095 1.77253 120.056 1.48367 119.977 1.29985C119.898 1.11603 119.754 0.991301 119.544 0.925652C119.347 0.846873 119.026 0.807484 118.579 0.807484C118.54 0.807484 118.52 0.768095 118.52 0.689316C118.52 0.610537 118.54 0.571148 118.579 0.571148L119.603 0.590842C120.181 0.617102 120.653 0.630231 121.021 0.630231C121.427 0.630231 121.92 0.617102 122.497 0.590842L123.482 0.571148C123.521 0.571148 123.541 0.610537 123.541 0.689316C123.541 0.768095 123.521 0.807484 123.482 0.807484C123.048 0.807484 122.727 0.846873 122.517 0.925652C122.32 1.00443 122.182 1.14229 122.103 1.33924C122.038 1.52306 122.005 1.81192 122.005 2.20581V11.2851Z" fill="black"/>
<path d="M13.7621 36.2777C13.8015 36.2777 13.8212 36.3171 13.8212 36.3959C13.8212 36.4746 13.8015 36.514 13.7621 36.514C13.3159 36.514 12.9549 36.5075 12.6793 36.4943L11.242 36.4746L9.56851 36.4943C9.33225 36.5075 9.01724 36.514 8.62348 36.514C8.5841 36.514 8.56441 36.4746 8.56441 36.3959C8.56441 36.3171 8.5841 36.2777 8.62348 36.2777C9.12225 36.2777 9.4832 36.2449 9.70633 36.1792C9.92947 36.1136 10.0804 35.9888 10.1592 35.805C10.2379 35.6212 10.2773 35.3258 10.2773 34.9188V30.3693H3.52421V34.9188C3.52421 35.3126 3.56358 35.6081 3.64234 35.805C3.72109 35.9888 3.87203 36.1136 4.09517 36.1792C4.33143 36.2449 4.69894 36.2777 5.19771 36.2777C5.22396 36.2777 5.23709 36.3171 5.23709 36.3959C5.23709 36.4746 5.22396 36.514 5.19771 36.514C4.75144 36.514 4.40362 36.5075 4.15423 36.4943L2.5201 36.4746L1.08286 36.4943C0.833471 36.5075 0.485645 36.514 0.0393766 36.514C0.0131255 36.514 0 36.4746 0 36.3959C0 36.3171 0.0131255 36.2777 0.0393766 36.2777C0.511896 36.2777 0.859722 36.2449 1.08286 36.1792C1.30599 36.1136 1.45693 35.9888 1.53569 35.805C1.61444 35.6081 1.65382 35.3126 1.65382 34.9188V25.8001C1.65382 25.4062 1.61444 25.1173 1.53569 24.9335C1.45693 24.7497 1.30599 24.625 1.08286 24.5593C0.859722 24.4806 0.518459 24.4412 0.0590649 24.4412C0.0328138 24.4412 0.0196883 24.4018 0.0196883 24.323C0.0196883 24.2442 0.0328138 24.2048 0.0590649 24.2048L1.10254 24.2245C1.70632 24.2508 2.17884 24.2639 2.5201 24.2639C2.9795 24.2639 3.52421 24.2508 4.15423 24.2245L5.19771 24.2048C5.22396 24.2048 5.23709 24.2442 5.23709 24.323C5.23709 24.4018 5.22396 24.4412 5.19771 24.4412C4.71207 24.4412 4.35111 24.4806 4.11485 24.5593C3.89172 24.6381 3.73421 24.776 3.64234 24.9729C3.56358 25.1567 3.52421 25.4456 3.52421 25.8395V29.8572H10.2773V25.8395C10.2773 25.4456 10.2379 25.1567 10.1592 24.9729C10.0804 24.776 9.9229 24.6381 9.68664 24.5593C9.46351 24.4806 9.10912 24.4412 8.62348 24.4412C8.5841 24.4412 8.56441 24.4018 8.56441 24.323C8.56441 24.2442 8.5841 24.2048 8.62348 24.2048L9.56851 24.2245C10.1985 24.2508 10.7564 24.2639 11.242 24.2639C11.5964 24.2639 12.0755 24.2508 12.6793 24.2245L13.7621 24.2048C13.8015 24.2048 13.8212 24.2442 13.8212 24.323C13.8212 24.4018 13.8015 24.4412 13.7621 24.4412C13.2896 24.4412 12.9418 24.4806 12.7186 24.5593C12.5086 24.625 12.3643 24.7497 12.2855 24.9335C12.2067 25.1173 12.1674 25.4062 12.1674 25.8001V34.9188C12.1674 35.3126 12.2067 35.6081 12.2855 35.805C12.3643 35.9888 12.5086 36.1136 12.7186 36.1792C12.9418 36.2449 13.2896 36.2777 13.7621 36.2777Z" fill="black"/>
<path d="M26.9871 33.4417C26.9871 33.4154 27.0134 33.4023 27.0659 33.4023C27.1052 33.4023 27.1381 33.4154 27.1643 33.4417C27.2037 33.4548 27.2234 33.4679 27.2234 33.481C27.0921 34.4789 27.0265 35.3914 27.0265 36.2186C27.0265 36.3237 27.0068 36.4024 26.9674 36.4549C26.9281 36.4943 26.8493 36.514 26.7312 36.514H18.1865C18.1471 36.514 18.1274 36.4746 18.1274 36.3959C18.1274 36.3171 18.1471 36.2777 18.1865 36.2777C18.6327 36.2777 18.9543 36.2449 19.1512 36.1792C19.3612 36.1136 19.499 35.9888 19.5646 35.805C19.6434 35.6081 19.6828 35.3126 19.6828 34.9188V25.8001C19.6828 25.4062 19.6434 25.1173 19.5646 24.9335C19.499 24.7497 19.3612 24.625 19.1512 24.5593C18.9412 24.4806 18.6196 24.4412 18.1865 24.4412C18.1471 24.4412 18.1274 24.4018 18.1274 24.323C18.1274 24.2442 18.1471 24.2048 18.1865 24.2048H26.3768C26.508 24.2048 26.5737 24.2639 26.5737 24.3821L26.613 26.9424C26.613 26.9687 26.5737 26.9883 26.4949 27.0015C26.4293 27.0146 26.3899 27.0015 26.3768 26.9621C26.0618 25.4653 25.1495 24.7169 23.6401 24.7169H22.8526C22.3801 24.7169 22.0454 24.8022 21.8485 24.9729C21.6516 25.1436 21.5532 25.4325 21.5532 25.8395V29.8572H23.4432C24.887 29.8572 25.6089 29.3714 25.6089 28.3998C25.6089 28.3604 25.6418 28.3407 25.7074 28.3407C25.7861 28.3407 25.8255 28.3604 25.8255 28.3998L25.8058 30.1132L25.8255 31.0389C25.8518 31.459 25.8649 31.8004 25.8649 32.063C25.8649 32.0893 25.8255 32.1024 25.7468 32.1024C25.668 32.1024 25.6286 32.0893 25.6286 32.063C25.6286 30.9339 24.8936 30.3693 23.4235 30.3693H21.5532V34.84C21.5532 35.2733 21.6319 35.5752 21.7894 35.7459C21.96 35.9166 22.2554 36.002 22.6754 36.002H23.6401C25.3989 36.002 26.5146 35.1485 26.9871 33.4417Z" fill="black"/>
<path d="M44.1922 36.2777C44.3104 36.2777 44.376 36.2908 44.3891 36.3171C44.4154 36.3302 44.4285 36.3959 44.4285 36.514C44.4285 36.6978 44.4088 36.9276 44.3694 37.2033C44.2644 38.1093 44.2119 39.0087 44.2119 39.9015C44.2119 39.9672 44.1725 40 44.0938 40C44.015 40 43.9757 39.9672 43.9757 39.9015C43.9757 38.7986 43.6672 37.9583 43.0503 37.3806C42.4465 36.8029 41.5409 36.514 40.3333 36.514H34.9781C33.9018 36.514 33.1208 36.7701 32.6352 37.2821C32.1496 37.7942 31.9067 38.6673 31.9067 39.9015C31.9067 39.9672 31.8674 40 31.7886 40C31.7099 40 31.6705 39.9672 31.6705 39.9015C31.6705 38.7855 31.5983 37.8401 31.4539 37.0655C31.4145 36.7898 31.3948 36.5797 31.3948 36.4352C31.3948 36.3171 31.4014 36.2514 31.4145 36.2383C31.4408 36.212 31.5064 36.1989 31.6114 36.1989C32.5958 36.1989 33.4424 35.6015 34.1512 34.4067C34.8731 33.1988 35.4113 31.7873 35.7656 30.1723C36.1332 28.5442 36.3169 27.159 36.3169 26.0167C36.3169 24.9664 35.6213 24.4412 34.2299 24.4412C34.1906 24.4412 34.1709 24.4018 34.1709 24.323C34.1709 24.2442 34.1906 24.2048 34.2299 24.2048H43.8182C43.8575 24.2048 43.8772 24.2442 43.8772 24.323C43.8772 24.4018 43.8575 24.4412 43.8182 24.4412C43.3456 24.4412 42.9978 24.4806 42.7747 24.5593C42.5647 24.625 42.4203 24.7497 42.3415 24.9335C42.2628 25.1173 42.2234 25.4062 42.2234 25.8001V34.9188C42.2234 35.4308 42.2497 35.7656 42.3022 35.9232C42.3547 36.0807 42.499 36.1792 42.7353 36.2186C42.9716 36.258 43.4572 36.2777 44.1922 36.2777ZM40.3333 25.8395C40.3333 25.4193 40.3136 25.1436 40.2743 25.0123C40.2349 24.8679 40.143 24.7825 39.9986 24.7563C39.8674 24.7169 39.5917 24.6972 39.1717 24.6972H38.0889C37.7345 24.6972 37.4851 24.7366 37.3407 24.8154C37.1963 24.8941 37.0979 25.032 37.0454 25.229C36.9929 25.4259 36.9469 25.787 36.9076 26.3122L36.8682 26.7061C36.7107 28.3867 36.376 30.1658 35.8641 32.0433C35.3522 33.9209 34.6106 35.247 33.6393 36.0217H39.0733C39.5589 36.0217 39.8674 36.0085 39.9986 35.9823C40.143 35.956 40.2349 35.8772 40.2743 35.7459C40.3136 35.6015 40.3333 35.3127 40.3333 34.8794V25.8395Z" fill="black"/>
<path d="M54.7293 29.6012C55.8056 29.7193 56.6653 30.0804 57.3085 30.6844C57.9516 31.2884 58.2732 32.0368 58.2732 32.9296C58.2732 33.6123 58.0829 34.236 57.7023 34.8006C57.3347 35.352 56.8163 35.7919 56.1469 36.1201C55.4906 36.4352 54.7556 36.5928 53.9418 36.5928C53.5611 36.5928 53.1214 36.5731 52.6227 36.5337C52.452 36.5206 52.2355 36.5075 51.973 36.4943C51.7104 36.4812 51.4151 36.4746 51.087 36.4746L49.6694 36.4943C49.42 36.5075 49.0788 36.514 48.6456 36.514C48.6063 36.514 48.5866 36.4746 48.5866 36.3959C48.5866 36.3171 48.6063 36.2777 48.6456 36.2777C49.0657 36.2777 49.3807 36.2449 49.5907 36.1792C49.8007 36.1004 49.9451 35.9691 50.0238 35.7853C50.1157 35.6015 50.1616 35.3126 50.1616 34.9188V25.8001C50.1616 25.4193 50.1157 25.137 50.0238 24.9532C49.9451 24.7563 49.8007 24.625 49.5907 24.5593C49.3938 24.4806 49.0853 24.4412 48.6653 24.4412C48.6391 24.4412 48.6259 24.4018 48.6259 24.323C48.6259 24.2442 48.6391 24.2048 48.6653 24.2048L49.6891 24.2245C50.2666 24.2508 50.7326 24.2639 51.087 24.2639C51.4545 24.2639 51.8417 24.2442 52.2486 24.2048C52.393 24.1917 52.5636 24.1786 52.7605 24.1654C52.9705 24.1523 53.2068 24.1457 53.4693 24.1457C54.6374 24.1457 55.53 24.3755 56.1469 24.8351C56.7769 25.2815 57.0919 25.9051 57.0919 26.7061C57.0919 27.3232 56.8819 27.8877 56.4619 28.3998C56.055 28.9119 55.4775 29.3123 54.7293 29.6012ZM53.1346 24.5396C52.7145 24.5396 52.4258 24.625 52.2683 24.7957C52.1239 24.9664 52.0517 25.3143 52.0517 25.8395V29.5815L52.8786 29.6012C53.653 29.6012 54.2371 29.3517 54.6309 28.8528C55.0246 28.3407 55.2215 27.6842 55.2215 26.8833C55.2215 26.1349 55.0443 25.5572 54.6899 25.1502C54.3356 24.7431 53.8171 24.5396 53.1346 24.5396ZM53.6268 36.1398C55.3987 36.1398 56.2847 35.2273 56.2847 33.4023C56.2847 32.4044 56.0222 31.6035 55.4972 30.9995C54.9853 30.3955 54.2305 30.0935 53.233 30.0935C52.7605 30.0935 52.3667 30.1067 52.0517 30.1329V34.9188C52.0517 35.2207 52.0911 35.4571 52.1698 35.6278C52.2486 35.7985 52.3995 35.9298 52.6227 36.0217C52.8458 36.1004 53.1805 36.1398 53.6268 36.1398Z" fill="black"/>
<path d="M76.3669 36.2777C76.4063 36.2777 76.426 36.3171 76.426 36.3959C76.426 36.4746 76.4063 36.514 76.3669 36.514C75.9206 36.514 75.5597 36.5075 75.2841 36.4943L73.8468 36.4746L72.1733 36.4943C71.937 36.5075 71.622 36.514 71.2283 36.514C71.1889 36.514 71.1692 36.4746 71.1692 36.3959C71.1692 36.3171 71.1889 36.2777 71.2283 36.2777C71.727 36.2777 72.088 36.2449 72.3111 36.1792C72.5343 36.1136 72.6852 35.9888 72.764 35.805C72.8427 35.6212 72.8821 35.3258 72.8821 34.9188V27.2378L66.3653 34.2097V34.9188C66.3653 35.3126 66.4046 35.6081 66.4834 35.805C66.5621 35.9888 66.7131 36.1136 66.9362 36.1792C67.1725 36.2449 67.54 36.2777 68.0388 36.2777C68.065 36.2777 68.0781 36.3171 68.0781 36.3959C68.0781 36.4746 68.065 36.514 68.0388 36.514C67.5925 36.514 67.2447 36.5075 66.9953 36.4943L65.3612 36.4746L63.9239 36.4943C63.6745 36.5075 63.3267 36.514 62.8804 36.514C62.8542 36.514 62.841 36.4746 62.841 36.3959C62.841 36.3171 62.8542 36.2777 62.8804 36.2777C63.3529 36.2777 63.7008 36.2449 63.9239 36.1792C64.147 36.1136 64.298 35.9888 64.3767 35.805C64.4555 35.6081 64.4949 35.3126 64.4949 34.9188V25.8001C64.4949 25.4062 64.4555 25.1173 64.3767 24.9335C64.298 24.7497 64.147 24.625 63.9239 24.5593C63.7008 24.4806 63.3595 24.4412 62.9001 24.4412C62.8739 24.4412 62.8607 24.4018 62.8607 24.323C62.8607 24.2442 62.8739 24.2048 62.9001 24.2048L63.9436 24.2245C64.5474 24.2508 65.0199 24.2639 65.3612 24.2639C65.8205 24.2639 66.3653 24.2508 66.9953 24.2245L68.0388 24.2048C68.065 24.2048 68.0781 24.2442 68.0781 24.323C68.0781 24.4018 68.065 24.4412 68.0388 24.4412C67.5531 24.4412 67.1922 24.4806 66.9559 24.5593C66.7328 24.6381 66.5753 24.776 66.4834 24.9729C66.4046 25.1567 66.3653 25.4456 66.3653 25.8395V33.4613L72.8821 26.5091V25.8395C72.8821 25.4456 72.8427 25.1567 72.764 24.9729C72.6852 24.776 72.5277 24.6381 72.2914 24.5593C72.0683 24.4806 71.7139 24.4412 71.2283 24.4412C71.1889 24.4412 71.1692 24.4018 71.1692 24.323C71.1692 24.2442 71.1889 24.2048 71.2283 24.2048L72.1733 24.2245C72.8033 24.2508 73.3612 24.2639 73.8468 24.2639C74.2012 24.2639 74.6803 24.2508 75.2841 24.2245L76.3669 24.2048C76.4063 24.2048 76.426 24.2442 76.426 24.323C76.426 24.4018 76.4063 24.4412 76.3669 24.4412C75.8944 24.4412 75.5466 24.4806 75.3234 24.5593C75.1134 24.625 74.969 24.7497 74.8903 24.9335C74.8115 25.1173 74.7722 25.4062 74.7722 25.8001V34.9188C74.7722 35.3126 74.8115 35.6081 74.8903 35.805C74.969 35.9888 75.1134 36.1136 75.3234 36.1792C75.5466 36.2449 75.8944 36.2777 76.3669 36.2777Z" fill="black"/>
<path d="M99.8354 36.2777C99.8747 36.2777 99.8944 36.3171 99.8944 36.3959C99.8944 36.4746 99.8747 36.514 99.8354 36.514H96.9806C96.8231 36.514 96.6787 36.4615 96.5474 36.3565C96.4293 36.2514 96.2127 35.9757 95.8977 35.5293C95.5958 35.0829 95.0905 34.3082 94.3817 33.2053C93.8042 32.2994 93.3645 31.6626 93.0626 31.2949C92.7607 30.9142 92.4588 30.6581 92.1569 30.5268C91.855 30.3824 91.4482 30.3102 90.9363 30.3102H90.7984V34.9188C90.7984 35.3126 90.8378 35.6081 90.9166 35.805C90.9953 35.9888 91.1397 36.1136 91.3497 36.1792C91.5728 36.2449 91.9207 36.2777 92.3932 36.2777C92.4194 36.2777 92.4326 36.3171 92.4326 36.3959C92.4326 36.4746 92.4194 36.514 92.3932 36.514C91.9338 36.514 91.5728 36.5075 91.3103 36.4943L89.7943 36.4746L88.3965 36.4943C88.1471 36.5075 87.7992 36.514 87.353 36.514C87.3267 36.514 87.3136 36.4746 87.3136 36.3959C87.3136 36.3171 87.3267 36.2777 87.353 36.2777C87.8255 36.2777 88.1733 36.2449 88.3965 36.1792C88.6196 36.1136 88.7705 35.9888 88.8493 35.805C88.928 35.6081 88.9674 35.3126 88.9674 34.9188V30.3102H88.7902C88.2915 30.3102 87.8911 30.3824 87.5892 30.5268C87.2874 30.6581 86.9855 30.9142 86.6836 31.2949C86.3817 31.6626 85.942 32.2928 85.3645 33.1856C84.6294 34.341 84.111 35.1354 83.8091 35.5687C83.5203 35.9888 83.3103 36.2514 83.1791 36.3565C83.0609 36.4615 82.9231 36.514 82.7656 36.514H79.9108C79.8714 36.514 79.8517 36.4746 79.8517 36.3959C79.8517 36.3171 79.8714 36.2777 79.9108 36.2777C80.3308 36.2646 80.7115 36.1333 81.0527 35.8838C81.4071 35.6212 81.7418 35.2798 82.0568 34.8597C82.385 34.4264 82.8641 33.7436 83.4941 32.8114C83.9797 32.0893 84.3735 31.5444 84.6754 31.1768C84.9773 30.8091 85.2726 30.54 85.5613 30.3693C85.8501 30.1855 86.1914 30.0673 86.5851 30.0148L84.006 26.647C83.4285 25.8986 82.8378 25.3471 82.234 24.9926C81.6302 24.625 80.9871 24.4412 80.3046 24.4412C80.2783 24.4412 80.2652 24.4018 80.2652 24.323C80.2652 24.2442 80.2783 24.2048 80.3046 24.2048L81.1118 24.2245C81.6368 24.2508 82.1421 24.2639 82.6278 24.2639C83.0347 24.2639 83.5531 24.2508 84.1832 24.2245L85.3645 24.2048C85.3907 24.2048 85.4038 24.2442 85.4038 24.323C85.4038 24.4018 85.3907 24.4412 85.3645 24.4412C84.6294 24.4412 84.2619 24.6972 84.2619 25.2093C84.2619 25.6688 84.5507 26.3187 85.1282 27.159L87.038 29.9754C87.143 29.9622 87.3202 29.9557 87.5696 29.9557C87.7664 29.9557 88.2324 29.9688 88.9674 29.9951V25.8001C88.9674 25.4193 88.9215 25.137 88.8296 24.9532C88.7377 24.7563 88.5737 24.625 88.3374 24.5593C88.1143 24.4806 87.773 24.4412 87.3136 24.4412C87.2874 24.4412 87.2742 24.4018 87.2742 24.323C87.2742 24.2442 87.2874 24.2048 87.3136 24.2048L88.3965 24.2245C88.974 24.2508 89.4399 24.2639 89.7943 24.2639C90.1881 24.2639 90.7131 24.2508 91.3694 24.2245L92.4523 24.2048C92.4785 24.2048 92.4916 24.2442 92.4916 24.323C92.4916 24.4018 92.4785 24.4412 92.4523 24.4412C91.9929 24.4412 91.645 24.4806 91.4088 24.5593C91.1725 24.6381 91.0084 24.776 90.9166 24.9729C90.8378 25.1567 90.7984 25.4456 90.7984 25.8395V29.9951C91.5335 29.9688 91.9929 29.9557 92.1766 29.9557C92.426 29.9557 92.6032 29.9622 92.7082 29.9754L94.5786 27.2378C95.1824 26.3581 95.4843 25.6819 95.4843 25.2093C95.4843 24.6972 95.1233 24.4412 94.4014 24.4412C94.362 24.4412 94.3423 24.4018 94.3423 24.323C94.3423 24.2442 94.362 24.2048 94.4014 24.2048L95.563 24.2245C96.193 24.2508 96.7115 24.2639 97.1184 24.2639C97.604 24.2639 98.1094 24.2508 98.6344 24.2245L99.4416 24.2048C99.4678 24.2048 99.481 24.2442 99.481 24.323C99.481 24.4018 99.4678 24.4412 99.4416 24.4412C98.7722 24.4412 98.129 24.625 97.5121 24.9926C96.9084 25.3471 96.3177 25.8986 95.7402 26.647L93.161 30.0148C93.5679 30.0673 93.9157 30.1855 94.2045 30.3693C94.4933 30.54 94.782 30.8091 95.0708 31.1768C95.3596 31.5313 95.7533 32.0761 96.2521 32.8114C96.8821 33.7436 97.3546 34.4264 97.6696 34.8597C97.9978 35.2798 98.3325 35.6212 98.6738 35.8838C99.0281 36.1333 99.4154 36.2646 99.8354 36.2777Z" fill="black"/>
<path d="M116.843 36.2777C116.883 36.2777 116.902 36.3171 116.902 36.3959C116.902 36.4746 116.883 36.514 116.843 36.514C116.397 36.514 116.036 36.5075 115.76 36.4943L114.323 36.4746L112.65 36.4943C112.413 36.5075 112.098 36.514 111.705 36.514C111.665 36.514 111.646 36.4746 111.646 36.3959C111.646 36.3171 111.665 36.2777 111.705 36.2777C112.203 36.2777 112.564 36.2449 112.787 36.1792C113.011 36.1136 113.162 35.9888 113.24 35.805C113.319 35.6212 113.358 35.3258 113.358 34.9188V27.2378L106.842 34.2097V34.9188C106.842 35.3126 106.881 35.6081 106.96 35.805C107.039 35.9888 107.189 36.1136 107.413 36.1792C107.649 36.2449 108.016 36.2777 108.515 36.2777C108.541 36.2777 108.555 36.3171 108.555 36.3959C108.555 36.4746 108.541 36.514 108.515 36.514C108.069 36.514 107.721 36.5075 107.472 36.4943L105.838 36.4746L104.4 36.4943C104.151 36.5075 103.803 36.514 103.357 36.514C103.331 36.514 103.317 36.4746 103.317 36.3959C103.317 36.3171 103.331 36.2777 103.357 36.2777C103.829 36.2777 104.177 36.2449 104.4 36.1792C104.623 36.1136 104.774 35.9888 104.853 35.805C104.932 35.6081 104.971 35.3126 104.971 34.9188V25.8001C104.971 25.4062 104.932 25.1173 104.853 24.9335C104.774 24.7497 104.623 24.625 104.4 24.5593C104.177 24.4806 103.836 24.4412 103.376 24.4412C103.35 24.4412 103.337 24.4018 103.337 24.323C103.337 24.2442 103.35 24.2048 103.376 24.2048L104.42 24.2245C105.024 24.2508 105.496 24.2639 105.838 24.2639C106.297 24.2639 106.842 24.2508 107.472 24.2245L108.515 24.2048C108.541 24.2048 108.555 24.2442 108.555 24.323C108.555 24.4018 108.541 24.4412 108.515 24.4412C108.029 24.4412 107.669 24.4806 107.432 24.5593C107.209 24.6381 107.052 24.776 106.96 24.9729C106.881 25.1567 106.842 25.4456 106.842 25.8395V33.4613L113.358 26.5091V25.8395C113.358 25.4456 113.319 25.1567 113.24 24.9729C113.162 24.776 113.004 24.6381 112.768 24.5593C112.545 24.4806 112.19 24.4412 111.705 24.4412C111.665 24.4412 111.646 24.4018 111.646 24.323C111.646 24.2442 111.665 24.2048 111.705 24.2048L112.65 24.2245C113.28 24.2508 113.838 24.2639 114.323 24.2639C114.678 24.2639 115.157 24.2508 115.76 24.2245L116.843 24.2048C116.883 24.2048 116.902 24.2442 116.902 24.323C116.902 24.4018 116.883 24.4412 116.843 24.4412C116.371 24.4412 116.023 24.4806 115.8 24.5593C115.59 24.625 115.445 24.7497 115.367 24.9335C115.288 25.1173 115.249 25.4062 115.249 25.8001V34.9188C115.249 35.3126 115.288 35.6081 115.367 35.805C115.445 35.9888 115.59 36.1136 115.8 36.1792C116.023 36.2449 116.371 36.2777 116.843 36.2777Z" fill="black"/>
<path d="M136.709 36.2777C136.735 36.2777 136.748 36.3171 136.748 36.3959C136.748 36.4746 136.735 36.514 136.709 36.514C136.276 36.514 135.928 36.5075 135.665 36.4943L134.248 36.4746L132.87 36.4943C132.633 36.5075 132.299 36.514 131.865 36.514C131.839 36.514 131.826 36.4746 131.826 36.3959C131.826 36.3171 131.839 36.2777 131.865 36.2777C132.443 36.2777 132.83 36.212 133.027 36.0807C133.224 35.9494 133.322 35.6737 133.322 35.2536L133.303 34.9188L132.909 26.5682L128.715 36.3762C128.689 36.4287 128.637 36.4549 128.558 36.4549C128.492 36.4549 128.433 36.4287 128.381 36.3762L123.459 26.647L123.281 34.131C123.268 34.8268 123.399 35.3586 123.675 35.7262C123.964 36.0939 124.39 36.2777 124.955 36.2777C124.994 36.2777 125.014 36.3171 125.014 36.3959C125.014 36.4746 124.994 36.514 124.955 36.514C124.6 36.514 124.325 36.5075 124.128 36.4943L123.045 36.4746L121.883 36.4943C121.687 36.5075 121.411 36.514 121.057 36.514C121.017 36.514 120.998 36.4746 120.998 36.3959C120.998 36.3171 121.017 36.2777 121.057 36.2777C121.595 36.2777 122.008 36.0939 122.297 35.7262C122.599 35.3586 122.756 34.8268 122.769 34.131L122.947 25.6622C122.71 25.2421 122.448 24.9335 122.159 24.7366C121.883 24.5396 121.562 24.4412 121.194 24.4412C121.155 24.4412 121.135 24.4018 121.135 24.323C121.135 24.2442 121.155 24.2048 121.194 24.2048L122.041 24.2245C122.212 24.2376 122.435 24.2442 122.71 24.2442L123.636 24.2245C123.741 24.2114 123.872 24.2048 124.03 24.2048C124.2 24.2048 124.338 24.2705 124.443 24.4018C124.548 24.5199 124.712 24.7957 124.935 25.229L129.267 33.678L133.185 24.6972C133.263 24.5134 133.349 24.3886 133.441 24.323C133.532 24.2442 133.644 24.2048 133.775 24.2048C133.867 24.2048 133.985 24.2114 134.13 24.2245C134.274 24.2376 134.451 24.2442 134.661 24.2442L135.724 24.2245C135.895 24.2114 136.151 24.2048 136.492 24.2048C136.518 24.2048 136.532 24.2442 136.532 24.323C136.532 24.4018 136.518 24.4412 136.492 24.4412C135.862 24.4412 135.403 24.5593 135.114 24.7957C134.838 25.0189 134.714 25.3931 134.74 25.9183L135.193 34.9188C135.219 35.3258 135.265 35.6212 135.331 35.805C135.409 35.9888 135.547 36.1136 135.744 36.1792C135.941 36.2449 136.263 36.2777 136.709 36.2777Z" fill="black"/>
<path d="M147.333 36.7504C146.112 36.7504 145.023 36.4681 144.064 35.9035C143.119 35.3258 142.384 34.5511 141.859 33.5795C141.348 32.5948 141.092 31.5247 141.092 30.3693C141.092 29.0169 141.433 27.8615 142.115 26.903C142.798 25.9314 143.671 25.2027 144.734 24.7169C145.81 24.2311 146.906 23.9882 148.022 23.9882C149.269 23.9882 150.365 24.2836 151.31 24.8744C152.255 25.4522 152.977 26.2203 153.476 27.1787C153.987 28.1372 154.243 29.1548 154.243 30.2314C154.243 31.4262 153.928 32.5226 153.298 33.5204C152.668 34.5183 151.822 35.3061 150.759 35.8838C149.708 36.4615 148.567 36.7504 147.333 36.7504ZM148.002 36.2777C148.79 36.2777 149.492 36.0676 150.109 35.6475C150.739 35.2142 151.231 34.584 151.585 33.7568C151.953 32.9296 152.137 31.9449 152.137 30.8026C152.137 29.5946 151.933 28.5114 151.526 27.5529C151.133 26.5945 150.562 25.8461 149.814 25.3077C149.078 24.7694 148.212 24.5002 147.215 24.5002C145.941 24.5002 144.95 24.9598 144.242 25.8789C143.546 26.7848 143.198 28.0453 143.198 29.6603C143.198 30.9076 143.402 32.0368 143.809 33.0478C144.229 34.0588 144.8 34.8531 145.521 35.4308C146.256 35.9954 147.083 36.2777 148.002 36.2777Z" fill="black"/>
<path d="M166.403 23.9882C166.994 23.9882 167.604 24.0407 168.234 24.1457C168.878 24.2508 169.383 24.3952 169.75 24.579C169.868 24.6184 169.941 24.6709 169.967 24.7366C170.006 24.7891 170.033 24.8876 170.046 25.032L170.282 27.5923C170.282 27.6317 170.249 27.658 170.184 27.6711C170.118 27.6842 170.078 27.6645 170.065 27.612C169.685 26.5879 169.107 25.8067 168.333 25.2683C167.572 24.73 166.672 24.4609 165.635 24.4609C164.27 24.4609 163.201 24.9401 162.426 25.8986C161.652 26.857 161.265 28.1438 161.265 29.7587C161.265 30.9667 161.475 32.0762 161.895 33.0872C162.328 34.0981 162.919 34.8991 163.667 35.4899C164.428 36.0807 165.275 36.3762 166.206 36.3762C167.978 36.3762 169.324 35.2733 170.243 33.0675C170.256 33.0149 170.295 32.9952 170.361 33.0084C170.439 33.0215 170.479 33.0478 170.479 33.0872L170.184 35.6081C170.157 35.7656 170.124 35.8707 170.085 35.9232C170.059 35.9626 169.987 36.0085 169.868 36.0611C168.727 36.5206 167.512 36.7504 166.226 36.7504C164.625 36.7504 163.293 36.4352 162.229 35.805C161.166 35.1617 160.379 34.3476 159.867 33.3629C159.368 32.3781 159.119 31.354 159.119 30.2905C159.119 29.0563 159.453 27.96 160.123 27.0015C160.805 26.043 161.704 25.3012 162.82 24.776C163.936 24.2508 165.13 23.9882 166.403 23.9882Z" fill="black"/>
<path d="M178.432 24.6184C177.631 24.6184 176.968 24.8679 176.443 25.3668C175.931 25.8526 175.538 26.5944 175.262 27.5923C175.262 27.6186 175.223 27.6317 175.144 27.6317C175.078 27.6317 175.045 27.612 175.045 27.5726C175.098 27.0606 175.157 26.4041 175.223 25.6031C175.288 24.7891 175.321 24.1786 175.321 23.7715C175.321 23.7059 175.354 23.6731 175.42 23.6731C175.498 23.6731 175.538 23.7059 175.538 23.7715C175.538 24.0604 175.905 24.2048 176.64 24.2048C177.769 24.2442 179.088 24.2639 180.598 24.2639C181.372 24.2639 182.192 24.2508 183.059 24.2245L184.397 24.2048C184.896 24.2048 185.257 24.172 185.48 24.1063C185.716 24.0407 185.867 23.9094 185.933 23.7125C185.946 23.6599 185.986 23.6337 186.051 23.6337C186.117 23.6337 186.15 23.6599 186.15 23.7125C186.11 24.1195 186.071 24.7366 186.031 25.5638C185.992 26.3909 185.972 27.0606 185.972 27.5726C185.972 27.612 185.933 27.6317 185.854 27.6317C185.789 27.6317 185.749 27.612 185.736 27.5726C185.605 26.5616 185.296 25.8198 184.811 25.3471C184.325 24.8613 183.669 24.6184 182.842 24.6184C182.474 24.6184 182.199 24.6512 182.015 24.7169C181.844 24.7825 181.726 24.9007 181.661 25.0714C181.608 25.229 181.582 25.485 181.582 25.8395V34.9188C181.582 35.3258 181.621 35.6212 181.7 35.805C181.779 35.9888 181.936 36.1136 182.173 36.1792C182.409 36.2449 182.783 36.2777 183.295 36.2777C183.334 36.2777 183.354 36.3171 183.354 36.3959C183.354 36.4746 183.334 36.514 183.295 36.514C182.835 36.514 182.474 36.5075 182.212 36.4943L180.598 36.4746L179.062 36.4943C178.786 36.5075 178.406 36.514 177.92 36.514C177.894 36.514 177.881 36.4746 177.881 36.3959C177.881 36.3171 177.894 36.2777 177.92 36.2777C178.432 36.2777 178.806 36.2449 179.042 36.1792C179.292 36.1136 179.456 35.9888 179.534 35.805C179.626 35.6081 179.672 35.3126 179.672 34.9188V25.8001C179.672 25.4587 179.639 25.2093 179.574 25.0517C179.508 24.8941 179.39 24.7825 179.219 24.7169C179.049 24.6512 178.786 24.6184 178.432 24.6184Z" fill="black"/>
<path d="M203.941 36.2777C203.98 36.2777 204 36.3171 204 36.3959C204 36.4746 203.98 36.514 203.941 36.514C203.495 36.514 203.134 36.5075 202.858 36.4943L201.421 36.4746L199.747 36.4943C199.511 36.5075 199.196 36.514 198.802 36.514C198.763 36.514 198.743 36.4746 198.743 36.3959C198.743 36.3171 198.763 36.2777 198.802 36.2777C199.301 36.2777 199.662 36.2449 199.885 36.1792C200.108 36.1136 200.259 35.9888 200.338 35.805C200.417 35.6212 200.456 35.3258 200.456 34.9188V27.2378L193.939 34.2097V34.9188C193.939 35.3126 193.979 35.6081 194.057 35.805C194.136 35.9888 194.287 36.1136 194.51 36.1792C194.747 36.2449 195.114 36.2777 195.613 36.2777C195.639 36.2777 195.652 36.3171 195.652 36.3959C195.652 36.4746 195.639 36.514 195.613 36.514C195.167 36.514 194.819 36.5075 194.569 36.4943L192.935 36.4746L191.498 36.4943C191.249 36.5075 190.901 36.514 190.454 36.514C190.428 36.514 190.415 36.4746 190.415 36.3959C190.415 36.3171 190.428 36.2777 190.454 36.2777C190.927 36.2777 191.275 36.2449 191.498 36.1792C191.721 36.1136 191.872 35.9888 191.951 35.805C192.03 35.6081 192.069 35.3126 192.069 34.9188V25.8001C192.069 25.4062 192.03 25.1173 191.951 24.9335C191.872 24.7497 191.721 24.625 191.498 24.5593C191.275 24.4806 190.934 24.4412 190.474 24.4412C190.448 24.4412 190.435 24.4018 190.435 24.323C190.435 24.2442 190.448 24.2048 190.474 24.2048L191.518 24.2245C192.121 24.2508 192.594 24.2639 192.935 24.2639C193.395 24.2639 193.939 24.2508 194.569 24.2245L195.613 24.2048C195.639 24.2048 195.652 24.2442 195.652 24.323C195.652 24.4018 195.639 24.4412 195.613 24.4412C195.127 24.4412 194.766 24.4806 194.53 24.5593C194.307 24.6381 194.149 24.776 194.057 24.9729C193.979 25.1567 193.939 25.4456 193.939 25.8395V33.4613L200.456 26.5091V25.8395C200.456 25.4456 200.417 25.1567 200.338 24.9729C200.259 24.776 200.102 24.6381 199.865 24.5593C199.642 24.4806 199.288 24.4412 198.802 24.4412C198.763 24.4412 198.743 24.4018 198.743 24.323C198.743 24.2442 198.763 24.2048 198.802 24.2048L199.747 24.2245C200.377 24.2508 200.935 24.2639 201.421 24.2639C201.775 24.2639 202.254 24.2508 202.858 24.2245L203.941 24.2048C203.98 24.2048 204 24.2442 204 24.323C204 24.4018 203.98 24.4412 203.941 24.4412C203.468 24.4412 203.121 24.4806 202.897 24.5593C202.687 24.625 202.543 24.7497 202.464 24.9335C202.386 25.1173 202.346 25.4062 202.346 25.8001V34.9188C202.346 35.3126 202.386 35.6081 202.464 35.805C202.543 35.9888 202.687 36.1136 202.897 36.1792C203.121 36.2449 203.468 36.2777 203.941 36.2777Z" fill="black"/>
</svg>
