<svg width="196" height="40" viewBox="0 0 196 40" fill="none" xmlns="http://www.w3.org/2000/svg">
<g clip-path="url(#clip0_1256_9789)">
<path d="M0 0H34.1107V2.29426H2.27405V37.9052H33.9131V40H0V0Z" fill="#BBAE91"/>
<path d="M30.2547 13.3672H17.4014V15.861H28.0795V24.7388H17.4014V27.1328H30.2547V13.3672Z" fill="#BBAE91"/>
<path d="M56.4938 37.46V19.4101H59.8143C62.8374 19.4101 68.1403 19.8101 69.5775 20.0601V18.0601C68.1403 18.3601 62.8374 18.8101 59.8143 18.8101H56.4938V2.51016H61.9949C67.2482 2.51016 71.5599 2.61016 74.93 4.61015L74.7813 1.91016H52.2812V38.06H75.4751L76.0203 35.11C71.4608 37.26 64.4729 37.46 59.6656 37.46H56.4938Z" fill="black"/>
<path d="M104.092 29.0113C104.092 23.1113 98.6903 19.9113 93.5857 17.1613C88.7288 14.6613 84.4667 12.2113 84.4667 7.36132C84.4667 4.56132 86.1022 1.71132 91.752 1.71132C96.3115 1.71132 99.285 3.76132 101.119 6.36132L101.416 3.56132C98.8885 2.16132 95.7167 1.11133 91.752 1.11133C84.0207 1.11133 80.8984 5.21132 80.8984 9.66132C80.8984 15.1113 85.7553 18.0113 91.1077 20.9113C96.0637 23.4613 100.474 26.7613 100.474 31.2113C100.474 34.7612 98.046 38.1612 92.0493 38.1612C86.5482 38.1612 82.9799 35.5112 80.9976 33.0112L80.7002 35.8112C85.6066 38.5612 90.6121 38.7612 92.0989 38.7612C99.7311 38.7612 104.092 34.1612 104.092 29.0113Z" fill="black"/>
<path d="M125.065 38.06V2.51016H128.435C134.878 2.51016 137.158 3.76015 138.645 4.61015L138.496 1.91016H107.422L107.273 4.61015C108.76 3.76015 111.09 2.51016 117.532 2.51016H120.853V38.06H125.065Z" fill="black"/>
<path d="M148.112 37.46V19.4101H151.432C154.456 19.4101 159.758 19.8101 161.196 20.0601V18.0601C159.758 18.3601 154.456 18.8101 151.432 18.8101H148.112V2.51016H153.613C158.866 2.51016 163.178 2.61016 166.548 4.61015L166.399 1.91016H143.899V38.06H167.093L167.638 35.11C163.079 37.26 156.091 37.46 151.284 37.46H148.112Z" fill="black"/>
<path d="M195.709 29.0113C195.709 23.1113 190.307 19.9113 185.203 17.1613C180.346 14.6613 176.084 12.2113 176.084 7.36132C176.084 4.56132 177.719 1.71132 183.369 1.71132C187.929 1.71132 190.902 3.76132 192.736 6.36132L193.033 3.56132C190.506 2.16132 187.334 1.11133 183.369 1.11133C175.638 1.11133 172.516 5.21132 172.516 9.66132C172.516 15.1113 177.372 18.0113 182.725 20.9113C187.681 23.4613 192.092 26.7613 192.092 31.2113C192.092 34.7612 189.663 38.1612 183.667 38.1612C178.165 38.1612 174.597 35.5112 172.615 33.0112L172.317 35.8112C177.224 38.5612 182.229 38.7612 183.716 38.7612C191.348 38.7612 195.709 34.1612 195.709 29.0113Z" fill="black"/>
</g>
<defs>
<clipPath id="clip0_1256_9789">
<rect width="196" height="40" fill="white"/>
</clipPath>
</defs>
</svg>
