<svg width="214" height="40" viewBox="0 0 214 40" fill="none" xmlns="http://www.w3.org/2000/svg">
<path d="M85.7998 0.203125C86.6577 0.236971 87.5217 0.236971 88.3826 0.22774C88.7608 1.54466 89.0867 2.87389 89.5048 4.17851C89.8984 2.86774 90.2489 1.54466 90.624 0.230817C91.282 0.230817 91.94 0.233894 92.598 0.230817C92.9731 1.58774 93.339 2.94774 93.708 4.30774C94.0923 2.94774 94.4644 1.58774 94.8518 0.230817C95.6051 0.233894 96.3584 0.230817 97.1117 0.206202C95.9556 2.37851 95.8295 4.96005 94.818 7.18774C94.1538 7.61851 93.2252 7.3262 92.4596 7.40313C92.1552 6.17543 91.8539 4.94774 91.5495 3.72313C91.2298 4.94159 90.9131 6.15697 90.6025 7.37851C89.8123 7.2862 88.8284 7.65851 88.1796 7.09851C87.6323 5.80313 87.3925 4.40313 86.9651 3.06466C86.63 2.09236 86.5962 0.944664 85.7998 0.203125Z" fill="#A0A747"/>
<path d="M83.0297 13.2578C86.3196 10.5655 90.861 9.63317 94.9934 10.4763C98.2802 11.1593 101.223 13.1932 103.126 15.9501C101.281 17.7224 99.4579 19.5224 97.5884 21.2701C96.7398 20.107 95.802 18.9101 94.4368 18.3378C92.2753 17.4516 89.5757 18.0424 88.0507 19.8332C86.541 21.5501 86.252 23.9809 86.4334 26.1778C86.6609 28.0609 87.5126 30.0178 89.1483 31.0793C91.1408 32.2793 93.6743 32.0639 95.7436 31.1686C95.7098 29.3993 95.7897 27.627 95.7129 25.8578C95.7006 25.107 94.8581 24.8947 94.4122 24.4455C97.2994 24.3962 100.19 24.427 103.08 24.4301C103.08 26.8486 103.077 29.2701 103.08 31.6916C103.101 32.907 103.114 34.1962 103.741 35.2824C100.891 38.1716 96.8443 39.5624 92.8472 39.7347C89.0438 40.0086 85.0743 38.7778 82.3071 36.1009C79.3031 33.2362 77.8457 29.0055 77.9103 24.9039C77.8734 20.5501 79.5891 16.0393 83.0297 13.2578Z" fill="#A0A747"/>
<path d="M42.7776 18.1348C45.634 16.6425 49.4405 18.0671 50.655 21.0486C49.6312 21.7102 48.5919 22.3471 47.5649 23.0025C47.116 21.9717 46.1168 21.0671 44.9176 21.3317C44.0874 21.3533 43.6109 22.4917 44.3088 23.0179C45.8124 24.0302 47.7587 24.1133 49.2407 25.184C51.7681 26.8548 51.5436 31.1717 48.9885 32.7102C47.362 33.7133 45.3081 33.7779 43.494 33.344C41.7015 32.9102 40.1979 31.5163 39.666 29.744C40.7206 29.1317 41.7476 28.4733 42.7807 27.8271C43.1866 28.7471 43.8968 29.6025 44.933 29.7902C45.717 29.9009 46.7778 29.9533 47.2667 29.1902C47.5096 28.5225 46.9715 27.9379 46.372 27.7533C44.727 27.0979 42.8422 26.8056 41.5385 25.5071C39.417 23.4486 40.0811 19.384 42.7776 18.1348Z" fill="#A0A747"/>
<path d="M115.689 23.6429C116.31 20.486 119.068 17.806 122.331 17.5937C125.089 17.2768 127.859 18.7414 129.298 21.0891C128.262 21.7291 127.219 22.3537 126.189 23.003C124.987 21.3137 122.453 20.886 120.784 22.1168C118.625 23.6983 118.589 27.3937 120.695 29.0337C122.472 30.366 125.494 30.0737 126.527 27.9414C124.833 28.0553 123.228 26.9106 122.964 25.1999C125.408 25.1845 127.856 25.1937 130.303 25.1937C130.386 27.3599 129.94 29.6676 128.443 31.3168C126.174 33.9014 122.032 34.2029 119.164 32.4737C116.196 30.726 114.933 26.9168 115.689 23.6429Z" fill="#A0A747"/>
<path d="M0.208984 17.8859C1.52189 17.8828 2.83786 17.8828 4.15077 17.8859C4.8887 21.092 5.63278 24.2951 6.37686 27.4982C7.247 24.2982 8.0864 21.089 8.95039 17.8859C9.91893 17.8797 10.8875 17.8859 11.856 17.889C12.7015 21.092 13.5502 24.292 14.4049 27.492C15.1613 24.292 15.8931 21.0859 16.6433 17.8828C17.9562 17.8828 19.2691 17.8828 20.5851 17.8859C19.2445 23.0059 17.9163 28.129 16.5788 33.249C15.2843 33.249 13.9868 33.249 12.6892 33.249C11.9267 30.3813 11.1796 27.5136 10.4047 24.652C9.63913 27.5136 8.87967 30.3782 8.12637 33.2428C6.82884 33.2551 5.53131 33.249 4.23686 33.249C2.88706 28.129 1.54956 23.0059 0.208984 17.8859Z" fill="#A0A747"/>
<path d="M25.0371 17.8859C28.2656 17.8797 31.4971 17.8859 34.7255 17.8828C34.7255 19.1197 34.7255 20.3567 34.7255 21.5967C32.727 21.5967 30.7253 21.5936 28.7268 21.5967C28.7298 22.3536 28.7298 23.1074 28.7298 23.8644C30.2856 23.8644 31.8414 23.8644 33.3973 23.8644C33.4003 24.9813 33.4003 26.0951 33.3973 27.212C31.8414 27.212 30.2856 27.212 28.7298 27.212C28.7329 27.9813 28.7268 28.7505 28.7175 29.5228C30.796 29.5567 32.8776 29.5259 34.9592 29.5413C34.9561 30.7751 34.9561 32.012 34.9561 33.249C31.6508 33.249 28.3455 33.252 25.0402 33.2459C25.0371 28.1259 25.0402 23.0059 25.0371 17.8859Z" fill="#A0A747"/>
<path d="M55.3664 17.9238C59.0345 17.9238 62.7057 17.9238 66.3738 17.9238C66.3769 19.1331 66.3769 20.3454 66.3738 21.5577C65.1839 21.5577 63.9909 21.5608 62.801 21.5608C62.801 25.4623 62.801 29.3669 62.801 33.2684C61.5188 33.2684 60.2398 33.2684 58.9576 33.2684C58.9576 29.3669 58.9576 25.4623 58.9576 21.5577C57.7616 21.5608 56.5624 21.5577 55.3633 21.5577C55.3633 20.3454 55.3633 19.1331 55.3664 17.9238Z" fill="#A0A747"/>
<path d="M137.895 17.8897C139.645 17.8805 141.394 17.8805 143.147 17.8897C144.718 23.0128 146.305 28.1267 147.882 33.2497C146.557 33.2497 145.228 33.2497 143.903 33.2497C143.7 32.5174 143.488 31.7913 143.285 31.059C141.45 31.059 139.614 31.059 137.775 31.059C137.572 31.7913 137.363 32.5174 137.16 33.2497C135.826 33.2497 134.492 33.2528 133.16 33.2497C134.734 28.1267 136.324 23.0097 137.895 17.8897ZM138.688 27.7882C139.918 27.7882 141.145 27.7882 142.375 27.7882C141.754 25.7667 141.145 23.742 140.521 21.7236C139.903 23.7451 139.297 25.7667 138.688 27.7882Z" fill="#A0A747"/>
<path d="M152.275 17.904C154.618 17.9194 156.961 17.8702 159.304 17.9255C161.822 18.0117 163.965 20.2794 164.033 22.7809C164.193 24.6917 163.206 26.584 161.592 27.5994C162.563 29.4855 163.553 31.3625 164.528 33.2486C163.212 33.2517 161.899 33.2486 160.586 33.2486C159.75 31.6178 158.917 29.9902 158.077 28.3625C157.339 28.3655 156.605 28.3655 155.87 28.3655C155.87 29.9932 155.87 31.6209 155.87 33.2486C154.671 33.2486 153.471 33.2486 152.275 33.2486C152.275 28.1317 152.275 23.0179 152.275 17.904ZM155.87 21.5779C155.867 22.7102 155.867 23.8425 155.87 24.9779C156.992 24.9471 158.127 25.0702 159.243 24.8948C160.734 24.5194 160.737 22.0302 159.252 21.6425C158.133 21.4917 156.995 21.6086 155.87 21.5779Z" fill="#A0A747"/>
<path d="M169.263 17.9007C171.366 17.9192 173.466 17.8761 175.569 17.9161C177.81 18.0115 179.889 19.39 180.993 21.3223C182.908 24.6146 182.343 29.3315 179.311 31.7715C178.17 32.7069 176.707 33.2177 175.237 33.2361C173.244 33.27 171.252 33.2392 169.263 33.2484C169.263 28.1315 169.263 23.0177 169.263 17.9007ZM173.106 21.6946C173.106 24.2823 173.103 26.873 173.109 29.4607C174.419 29.4207 175.895 29.673 177.033 28.8546C178.936 27.4053 179.013 24.1684 177.337 22.5192C176.208 21.43 174.527 21.7253 173.106 21.6946Z" fill="#A0A747"/>
<path d="M186.865 17.8828C190.094 17.8828 193.322 17.8828 196.551 17.8828C196.551 19.1197 196.551 20.3567 196.551 21.5936C194.546 21.5967 192.541 21.5967 190.536 21.5967C190.536 22.3505 190.533 23.1074 190.536 23.8613C192.098 23.8674 193.66 23.8644 195.225 23.8674C195.225 24.9874 195.225 26.1074 195.225 27.2305C193.66 27.2305 192.098 27.2274 190.536 27.2336C190.533 27.9997 190.536 28.769 190.536 29.5382C192.618 29.5382 194.7 29.5382 196.781 29.5382C196.781 30.7751 196.781 32.012 196.781 33.249C193.476 33.249 190.171 33.249 186.865 33.249C186.865 28.1259 186.865 23.0059 186.865 17.8828Z" fill="#A0A747"/>
<path d="M202.067 17.9231C203.032 17.9201 203.998 17.9231 204.969 17.9262C206.66 20.477 208.358 23.0216 210.058 25.5662C210.061 23.0185 210.058 20.4708 210.061 17.9231C211.3 17.9231 212.542 17.9231 213.788 17.9231C213.791 23.037 213.788 28.1539 213.788 33.2678C212.825 33.2678 211.866 33.2678 210.907 33.2708C209.194 30.7139 207.509 28.1385 205.796 25.5847C205.79 28.1508 205.796 30.7201 205.793 33.2862C204.551 33.2893 203.306 33.2893 202.067 33.2862C202.067 28.1662 202.064 23.0431 202.067 17.9231Z" fill="#A0A747"/>
</svg>
